{
    "asset" : {
        "generator" : "Khronos glTF Blender I/O v3.4.50",
        "version" : "2.0"
    },
    "extensionsUsed" : [
        "KHR_materials_specular",
        "KHR_materials_ior"
    ],
    "scene" : 0,
    "scenes" : [
        {
            "name" : "Scene",
            "nodes" : [
                0,
                1,
                2,
                3,
                4,
                5
            ]
        }
    ],
    "nodes" : [
        {
            "mesh" : 0,
            "name" : "\u5e73\u9762",
            "translation" : [
                0.5168904662132263,
                0,
                0.3973549008369446
            ]
        },
        {
            "mesh" : 0,
            "name" : "\u5e73\u9762.001",
            "rotation" : [
                0,
                0.5877853035926819,
                0,
                0.80901700258255
            ],
            "translation" : [
                0.5532039403915405,
                0,
                -0.374601811170578
            ]
        },
        {
            "mesh" : 1,
            "name" : "\u5186",
            "scale" : [
                0.5266402959823608,
                0.5266402959823608,
                0.5266402959823608
            ],
            "translation" : [
                0.0005703195929527283,
                0.7010374069213867,
                -0.0012853103689849377
            ]
        },
        {
            "mesh" : 0,
            "name" : "\u5e73\u9762.002",
            "rotation" : [
                0,
                0.9510565400123596,
                0,
                0.3090169429779053
            ],
            "translation" : [
                -0.2023901343345642,
                0,
                -0.654288649559021
            ]
        },
        {
            "mesh" : 0,
            "name" : "\u5e73\u9762.003",
            "rotation" : [
                0,
                -0.9510565400123596,
                0,
                0.30901721119880676
            ],
            "translation" : [
                -0.6511271595954895,
                0,
                -0.0306038036942482
            ]
        },
        {
            "mesh" : 0,
            "name" : "\u5e73\u9762.004",
            "rotation" : [
                0,
                -0.5877849459648132,
                0,
                0.8090171813964844
            ],
            "translation" : [
                -0.2309696227312088,
                0,
                0.6004447937011719
            ]
        }
    ],
    "materials" : [
        {
            "doubleSided" : true,
            "name" : "\u30de\u30c6\u30ea\u30a2\u30eb.001",
            "pbrMetallicRoughness" : {
                "baseColorFactor" : [
                    0.08156803250312805,
                    0.27621912956237793,
                    0.8000000715255737,
                    1
                ],
                "metallicFactor" : 0,
                "roughnessFactor" : 0.17532461881637573
            }
        },
        {
            "doubleSided" : true,
            "extensions" : {
                "KHR_materials_specular" : {
                    "specularColorFactor" : [
                        1.616834749968583,
                        1.616834749968583,
                        1.616834749968583
                    ]
                },
                "KHR_materials_ior" : {
                    "ior" : 1.4500000476837158
                }
            },
            "name" : "\u30de\u30c6\u30ea\u30a2\u30eb",
            "pbrMetallicRoughness" : {
                "baseColorFactor" : [
                    0.800000011920929,
                    0.800000011920929,
                    0.800000011920929,
                    1
                ],
                "roughnessFactor" : 0.22727271914482117
            }
        }
    ],
    "meshes" : [
        {
            "name" : "\u5e73\u9762",
            "primitives" : [
                {
                    "attributes" : {
                        "POSITION" : 0,
                        "TEXCOORD_0" : 1,
                        "NORMAL" : 2,
                        "TANGENT" : 3
                    },
                    "indices" : 4,
                    "material" : 0
                }
            ]
        },
        {
            "name" : "\u5186",
            "primitives" : [
                {
                    "attributes" : {
                        "POSITION" : 5,
                        "TEXCOORD_0" : 6,
                        "NORMAL" : 7,
                        "TANGENT" : 8
                    },
                    "indices" : 9,
                    "material" : 1
                }
            ]
        }
    ],
    "accessors" : [
        {
            "bufferView" : 0,
            "componentType" : 5126,
            "count" : 162,
            "max" : [
                -0.5784118175506592,
                0.5003832578659058,
                0.9528157114982605
            ],
            "min" : [
                -1.965145230293274,
                -0.029031632468104362,
                -0.21648161113262177
            ],
            "type" : "VEC3"
        },
        {
            "bufferView" : 1,
            "componentType" : 5126,
            "count" : 162,
            "type" : "VEC2"
        },
        {
            "bufferView" : 2,
            "componentType" : 5126,
            "count" : 162,
            "type" : "VEC3"
        },
        {
            "bufferView" : 3,
            "componentType" : 5126,
            "count" : 162,
            "type" : "VEC4"
        },
        {
            "bufferView" : 4,
            "componentType" : 5123,
            "count" : 420,
            "type" : "SCALAR"
        },
        {
            "bufferView" : 5,
            "componentType" : 5126,
            "count" : 158,
            "max" : [
                1,
                -0.18872703611850739,
                1
            ],
            "min" : [
                -1,
                -1.7674000263214111,
                -1
            ],
            "type" : "VEC3"
        },
        {
            "bufferView" : 6,
            "componentType" : 5126,
            "count" : 158,
            "type" : "VEC2"
        },
        {
            "bufferView" : 7,
            "componentType" : 5126,
            "count" : 158,
            "type" : "VEC3"
        },
        {
            "bufferView" : 8,
            "componentType" : 5126,
            "count" : 158,
            "type" : "VEC4"
        },
        {
            "bufferView" : 9,
            "componentType" : 5123,
            "count" : 564,
            "type" : "SCALAR"
        }
    ],
    "bufferViews" : [
        {
            "buffer" : 0,
            "byteLength" : 1944,
            "byteOffset" : 0,
            "target" : 34962
        },
        {
            "buffer" : 0,
            "byteLength" : 1296,
            "byteOffset" : 1944,
            "target" : 34962
        },
        {
            "buffer" : 0,
            "byteLength" : 1944,
            "byteOffset" : 3240,
            "target" : 34962
        },
        {
            "buffer" : 0,
            "byteLength" : 2592,
            "byteOffset" : 5184,
            "target" : 34962
        },
        {
            "buffer" : 0,
            "byteLength" : 840,
            "byteOffset" : 7776,
            "target" : 34963
        },
        {
            "buffer" : 0,
            "byteLength" : 1896,
            "byteOffset" : 8616,
            "target" : 34962
        },
        {
            "buffer" : 0,
            "byteLength" : 1264,
            "byteOffset" : 10512,
            "target" : 34962
        },
        {
            "buffer" : 0,
            "byteLength" : 1896,
            "byteOffset" : 11776,
            "target" : 34962
        },
        {
            "buffer" : 0,
            "byteLength" : 2528,
            "byteOffset" : 13672,
            "target" : 34962
        },
        {
            "buffer" : 0,
            "byteLength" : 1128,
            "byteOffset" : 16200,
            "target" : 34963
        }
    ],
    "buffers" : [
        {
            "byteLength" : 17328,
            "uri" : "fan.bin"
        }
    ]
}
