{
	"asset":{
		"generator":"Khronos glTF Blender I/O v4.4.56",
		"version":"2.0"
	},
	"scene":0,
	"scenes":[
		{
			"name":"Scene",
			"nodes":[
				0
			]
		}
	],
	"nodes":[
		{
			"mesh":0,
			"name":"bunny_lod0",
			"rotation":[
				0.7071068286895752,
				0,
        0,
				0.7071068286895752
			]
		}
	],
	"materials":[
		{
			"doubleSided":false,
			"name":"face",
			"pbrMetallicRoughness":{
				"baseColorFactor":[
					0.8,
					0.3,
					0.1,
					1
				],
				"metallicFactor":0,
				"roughnessFactor":0.5
			}
		},
		{
			"doubleSided":false,
			"name":"face.007",
			"pbrMetallicRoughness":{
				"baseColorFactor":[
					1.0,
					1.0,
					1.0,
					1
				],
				"metallicFactor":0,
				"roughnessFactor":0.5
			}
		},
		{
			"doubleSided":false,
			"name":"face.008",
			"pbrMetallicRoughness":{
				"baseColorFactor":[
					1.0,
					1.0,
					1.0,
					1
				],
				"metallicFactor":0,
				"roughnessFactor":0.5
			}
		},
		{
			"doubleSided":false,
			"name":"face.009",
			"pbrMetallicRoughness":{
				"baseColorFactor":[
					1.0,
					1.0,
					1.0,
					1
				],
				"metallicFactor":0,
				"roughnessFactor":0.5
			}
		},
		{
			"doubleSided":false,
			"name":"face.010",
			"pbrMetallicRoughness":{
				"baseColorFactor":[
					1.0,
					1.0,
					1.0,
					1
				],
				"metallicFactor":0,
				"roughnessFactor":0.5
			}
		},
		{
			"doubleSided":false,
			"name":"face.011",
			"pbrMetallicRoughness":{
				"baseColorFactor":[
					1.0,
					1.0,
					1.0,
					1
				],
				"metallicFactor":0,
				"roughnessFactor":0.5
			}
		},
		{
			"doubleSided":false,
			"name":"face.012",
			"pbrMetallicRoughness":{
				"baseColorFactor":[
					1.0,
					1.0,
					1.0,
					1
				],
				"metallicFactor":0,
				"roughnessFactor":0.5
			}
		}
	],
	"meshes":[
		{
			"name":"bunny",
			"primitives":[
				{
					"attributes":{
						"POSITION":0,
						"NORMAL":1,
						"TEXCOORD_0":2,
						"TANGENT":3
					},
					"indices":4,
					"material":0,
          "extensions": {
            "GCT_lod": {
              "ids": [
                1,
                2,
                3,
                4,
                5,
                6
              ]
            }
          },
          "extras": {
            "GCT_screencoverage": [
              0.5,
              0.25,
              0.125,
              0.0625,
              0.03125,
              0.015625,
              0.0
            ]
          }
				},
				{
					"attributes":{
						"POSITION":5,
						"NORMAL":6,
						"TEXCOORD_0":7,
						"TANGENT":8
					},
					"indices":9,
					"material":1
				},
				{
					"attributes":{
						"POSITION":10,
						"NORMAL":11,
						"TEXCOORD_0":12,
						"TANGENT":13
					},
					"indices":14,
					"material":2
				},
				{
					"attributes":{
						"POSITION":15,
						"NORMAL":16,
						"TEXCOORD_0":17,
						"TANGENT":18
					},
					"indices":19,
					"material":3
				},
				{
					"attributes":{
						"POSITION":20,
						"NORMAL":21,
						"TEXCOORD_0":22,
						"TANGENT":23
					},
					"indices":24,
					"material":4
				},
				{
					"attributes":{
						"POSITION":25,
						"NORMAL":26,
						"TEXCOORD_0":27,
						"TANGENT":28
					},
					"indices":29,
					"material":5
				},
				{
					"attributes":{
						"POSITION":30,
						"NORMAL":31,
						"TEXCOORD_0":32,
						"TANGENT":33
					},
					"indices":34,
					"material":6
				}
			]
		}
	],
	"accessors":[
		{
			"bufferView":0,
			"componentType":5126,
			"count":2524,
			"max":[
				0.9113479256629944,
				0.5343529582023621,
				0.023736774921417236
			],
			"min":[
				-0.7297579050064087,
				-0.7390419840812683,
				-1.60178804397583
			],
			"type":"VEC3"
		},
		{
			"bufferView":1,
			"componentType":5126,
			"count":2524,
			"type":"VEC3"
		},
		{
			"bufferView":2,
			"componentType":5126,
			"count":2524,
			"type":"VEC2"
		},
		{
			"bufferView":3,
			"componentType":5126,
			"count":2524,
			"type":"VEC4"
		},
		{
			"bufferView":4,
			"componentType":5123,
			"count":14997,
			"type":"SCALAR"
		},
		{
			"bufferView":5,
			"componentType":5126,
			"count":1309,
			"max":[
				0.9143896102905273,
				0.5341717004776001,
				0.02238018438220024
			],
			"min":[
				-0.7309636473655701,
				-0.7349091172218323,
				-1.6004055738449097
			],
			"type":"VEC3"
		},
		{
			"bufferView":6,
			"componentType":5126,
			"count":1309,
			"type":"VEC3"
		},
		{
			"bufferView":7,
			"componentType":5126,
			"count":1309,
			"type":"VEC2"
		},
		{
			"bufferView":8,
			"componentType":5126,
			"count":1309,
			"type":"VEC4"
		},
		{
			"bufferView":9,
			"componentType":5123,
			"count":7497,
			"type":"SCALAR"
		},
		{
			"bufferView":10,
			"componentType":5126,
			"count":693,
			"max":[
				0.9142372012138367,
				0.5366948246955872,
				0.02238018438220024
			],
			"min":[
				-0.7330427169799805,
				-0.7349091172218323,
				-1.599037766456604
			],
			"type":"VEC3"
		},
		{
			"bufferView":11,
			"componentType":5126,
			"count":693,
			"type":"VEC3"
		},
		{
			"bufferView":12,
			"componentType":5126,
			"count":693,
			"type":"VEC2"
		},
		{
			"bufferView":13,
			"componentType":5126,
			"count":693,
			"type":"VEC4"
		},
		{
			"bufferView":14,
			"componentType":5123,
			"count":3747,
			"type":"SCALAR"
		},
		{
			"bufferView":15,
			"componentType":5126,
			"count":360,
			"max":[
				0.9133564829826355,
				0.5337894558906555,
				0.02238018438220024
			],
			"min":[
				-0.739273190498352,
				-0.7369305491447449,
				-1.6040128469467163
			],
			"type":"VEC3"
		},
		{
			"bufferView":16,
			"componentType":5126,
			"count":360,
			"type":"VEC3"
		},
		{
			"bufferView":17,
			"componentType":5126,
			"count":360,
			"type":"VEC2"
		},
		{
			"bufferView":18,
			"componentType":5126,
			"count":360,
			"type":"VEC4"
		},
		{
			"bufferView":19,
			"componentType":5123,
			"count":1869,
			"type":"SCALAR"
		},
		{
			"bufferView":20,
			"componentType":5126,
			"count":211,
			"max":[
				0.9083628058433533,
				0.5301337242126465,
				0.021458564326167107
			],
			"min":[
				-0.7394317388534546,
				-0.7355578541755676,
				-1.5987095832824707
			],
			"type":"VEC3"
		},
		{
			"bufferView":21,
			"componentType":5126,
			"count":211,
			"type":"VEC3"
		},
		{
			"bufferView":22,
			"componentType":5126,
			"count":211,
			"type":"VEC2"
		},
		{
			"bufferView":23,
			"componentType":5126,
			"count":211,
			"type":"VEC4"
		},
		{
			"bufferView":24,
			"componentType":5123,
			"count":933,
			"type":"SCALAR"
		},
		{
			"bufferView":25,
			"componentType":5126,
			"count":119,
			"max":[
				0.9192753434181213,
				0.515060305595398,
				0.02006528712809086
			],
			"min":[
				-0.732619047164917,
				-0.7300150990486145,
				-1.59498929977417
			],
			"type":"VEC3"
		},
		{
			"bufferView":26,
			"componentType":5126,
			"count":119,
			"type":"VEC3"
		},
		{
			"bufferView":27,
			"componentType":5126,
			"count":119,
			"type":"VEC2"
		},
		{
			"bufferView":28,
			"componentType":5126,
			"count":119,
			"type":"VEC4"
		},
		{
			"bufferView":29,
			"componentType":5123,
			"count":465,
			"type":"SCALAR"
		},
		{
			"bufferView":30,
			"componentType":5126,
			"count":67,
			"max":[
				0.8277286291122437,
				0.5382193326950073,
				0.016963735222816467
			],
			"min":[
				-0.7000300288200378,
				-0.6717007756233215,
				-1.58913254737854
			],
			"type":"VEC3"
		},
		{
			"bufferView":31,
			"componentType":5126,
			"count":67,
			"type":"VEC3"
		},
		{
			"bufferView":32,
			"componentType":5126,
			"count":67,
			"type":"VEC2"
		},
		{
			"bufferView":33,
			"componentType":5126,
			"count":67,
			"type":"VEC4"
		},
		{
			"bufferView":34,
			"componentType":5123,
			"count":231,
			"type":"SCALAR"
		}
	],
	"bufferViews":[
		{
			"buffer":0,
			"byteLength":30288,
			"byteOffset":0,
			"target":34962
		},
		{
			"buffer":0,
			"byteLength":30288,
			"byteOffset":30288,
			"target":34962
		},
		{
			"buffer":0,
			"byteLength":20192,
			"byteOffset":60576,
			"target":34962
		},
		{
			"buffer":0,
			"byteLength":40384,
			"byteOffset":80768,
			"target":34962
		},
		{
			"buffer":0,
			"byteLength":29994,
			"byteOffset":121152,
			"target":34963
		},
		{
			"buffer":0,
			"byteLength":15708,
			"byteOffset":151148,
			"target":34962
		},
		{
			"buffer":0,
			"byteLength":15708,
			"byteOffset":166856,
			"target":34962
		},
		{
			"buffer":0,
			"byteLength":10472,
			"byteOffset":182564,
			"target":34962
		},
		{
			"buffer":0,
			"byteLength":20944,
			"byteOffset":193036,
			"target":34962
		},
		{
			"buffer":0,
			"byteLength":14994,
			"byteOffset":213980,
			"target":34963
		},
		{
			"buffer":0,
			"byteLength":8316,
			"byteOffset":228976,
			"target":34962
		},
		{
			"buffer":0,
			"byteLength":8316,
			"byteOffset":237292,
			"target":34962
		},
		{
			"buffer":0,
			"byteLength":5544,
			"byteOffset":245608,
			"target":34962
		},
		{
			"buffer":0,
			"byteLength":11088,
			"byteOffset":251152,
			"target":34962
		},
		{
			"buffer":0,
			"byteLength":7494,
			"byteOffset":262240,
			"target":34963
		},
		{
			"buffer":0,
			"byteLength":4320,
			"byteOffset":269736,
			"target":34962
		},
		{
			"buffer":0,
			"byteLength":4320,
			"byteOffset":274056,
			"target":34962
		},
		{
			"buffer":0,
			"byteLength":2880,
			"byteOffset":278376,
			"target":34962
		},
		{
			"buffer":0,
			"byteLength":5760,
			"byteOffset":281256,
			"target":34962
		},
		{
			"buffer":0,
			"byteLength":3738,
			"byteOffset":287016,
			"target":34963
		},
		{
			"buffer":0,
			"byteLength":2532,
			"byteOffset":290756,
			"target":34962
		},
		{
			"buffer":0,
			"byteLength":2532,
			"byteOffset":293288,
			"target":34962
		},
		{
			"buffer":0,
			"byteLength":1688,
			"byteOffset":295820,
			"target":34962
		},
		{
			"buffer":0,
			"byteLength":3376,
			"byteOffset":297508,
			"target":34962
		},
		{
			"buffer":0,
			"byteLength":1866,
			"byteOffset":300884,
			"target":34963
		},
		{
			"buffer":0,
			"byteLength":1428,
			"byteOffset":302752,
			"target":34962
		},
		{
			"buffer":0,
			"byteLength":1428,
			"byteOffset":304180,
			"target":34962
		},
		{
			"buffer":0,
			"byteLength":952,
			"byteOffset":305608,
			"target":34962
		},
		{
			"buffer":0,
			"byteLength":1904,
			"byteOffset":306560,
			"target":34962
		},
		{
			"buffer":0,
			"byteLength":930,
			"byteOffset":308464,
			"target":34963
		},
		{
			"buffer":0,
			"byteLength":804,
			"byteOffset":309396,
			"target":34962
		},
		{
			"buffer":0,
			"byteLength":804,
			"byteOffset":310200,
			"target":34962
		},
		{
			"buffer":0,
			"byteLength":536,
			"byteOffset":311004,
			"target":34962
		},
		{
			"buffer":0,
			"byteLength":1072,
			"byteOffset":311540,
			"target":34962
		},
		{
			"buffer":0,
			"byteLength":462,
			"byteOffset":312612,
			"target":34963
		}
	],
	"buffers":[
		{
			"byteLength":313076,
			"uri":"bunny2.bin"
		}
	]
}
