{
	"asset":{
		"generator":"Khronos glTF Blender I/O v4.4.56",
		"version":"2.0"
	},
	"scene":0,
	"scenes":[
		{
			"name":"Scene",
			"nodes":[
				0
			]
		}
	],
	"nodes":[
		{
			"mesh":0,
			"name":"bunny_lod0",
			"rotation":[
				0.7071068286895752,
				0,
				0,
				0.7071068286895752
			]
		}
	],
	"materials":[
		{
			"doubleSided":true,
			"name":"face",
			"pbrMetallicRoughness":{
				"baseColorFactor":[
          1.0,
          1.0,
          1.0,
					1
				],
				"metallicFactor":0,
				"roughnessFactor":0.5
			}
		},
		{
			"doubleSided":true,
			"name":"face.001",
			"pbrMetallicRoughness":{
				"baseColorFactor":[
          1.0,
          1.0,
          1.0,
					1
				],
				"metallicFactor":0,
				"roughnessFactor":0.5
			}
		},
		{
			"doubleSided":true,
			"name":"face.002",
			"pbrMetallicRoughness":{
				"baseColorFactor":[
          1.0,
          1.0,
          1.0,
					1
				],
				"metallicFactor":0,
				"roughnessFactor":0.5
			}
		},
		{
			"doubleSided":true,
			"name":"face.003",
			"pbrMetallicRoughness":{
				"baseColorFactor":[
          1.0,
          1.0,
          1.0,
					1
				],
				"metallicFactor":0,
				"roughnessFactor":0.5
			}
		},
		{
			"doubleSided":true,
			"name":"face.004",
			"pbrMetallicRoughness":{
				"baseColorFactor":[
          1.0,
          1.0,
          1.0,
					1
				],
				"metallicFactor":0,
				"roughnessFactor":0.5
			}
		},
		{
			"doubleSided":true,
			"name":"face.005",
			"pbrMetallicRoughness":{
				"baseColorFactor":[
          1.0,
          1.0,
          1.0,
					1
				],
				"metallicFactor":0,
				"roughnessFactor":0.5
			}
		},
		{
			"doubleSided":true,
			"name":"face.006",
			"pbrMetallicRoughness":{
				"baseColorFactor":[
          1.0,
          1.0,
          1.0,
					1
				],
				"metallicFactor":0,
				"roughnessFactor":0.5
			}
		}
	],
	"meshes":[
		{
			"name":"bunny",
			"primitives":[
				{
					"attributes":{
						"POSITION":0,
						"NORMAL":1,
						"TEXCOORD_0":2,
						"TANGENT":3
					},
					"indices":4,
					"material":0,
          "extensions": {
            "GCT_lod": {
              "ids": [
                1,
                2,
                3,
                4,
                5,
                6
              ]
            }
          },
          "extras": {
            "GCT_screencoverage": [
              0.5,
              0.25,
              0.125,
              0.0625,
              0.03125,
              0.015625,
              0.0
            ]
          }
				},
				{
					"attributes":{
						"POSITION":5,
						"NORMAL":6,
						"TEXCOORD_0":7,
						"TANGENT":8
					},
					"indices":9,
					"material":1
				},
				{
					"attributes":{
						"POSITION":10,
						"NORMAL":11,
						"TEXCOORD_0":12,
						"TANGENT":13
					},
					"indices":14,
					"material":2
				},
				{
					"attributes":{
						"POSITION":15,
						"NORMAL":16,
						"TEXCOORD_0":17,
						"TANGENT":18
					},
					"indices":19,
					"material":3
				},
				{
					"attributes":{
						"POSITION":20,
						"NORMAL":21,
						"TEXCOORD_0":22,
						"TANGENT":23
					},
					"indices":24,
					"material":4
				},
				{
					"attributes":{
						"POSITION":25,
						"NORMAL":26,
						"TEXCOORD_0":27,
						"TANGENT":28
					},
					"indices":29,
					"material":5
				},
				{
					"attributes":{
						"POSITION":30,
						"NORMAL":31,
						"TEXCOORD_0":32,
						"TANGENT":33
					},
					"indices":34,
					"material":6
				}
			]
		}
	],
	"accessors":[
		{
			"bufferView":0,
			"componentType":5126,
			"count":2814,
			"max":[
				0.9113479256629944,
				0.5343529582023621,
				0.023736774921417236
			],
			"min":[
				-0.7297579050064087,
				-0.7390419840812683,
				-1.60178804397583
			],
			"type":"VEC3"
		},
		{
			"bufferView":1,
			"componentType":5126,
			"count":2814,
			"type":"VEC3"
		},
		{
			"bufferView":2,
			"componentType":5126,
			"count":2814,
			"type":"VEC2"
		},
		{
			"bufferView":3,
			"componentType":5126,
			"count":2814,
			"type":"VEC4"
		},
		{
			"bufferView":4,
			"componentType":5123,
			"count":14997,
			"type":"SCALAR"
		},
		{
			"bufferView":5,
			"componentType":5126,
			"count":1512,
			"max":[
				0.9143896102905273,
				0.5341717004776001,
				0.02238018438220024
			],
			"min":[
				-0.7309636473655701,
				-0.7349091172218323,
				-1.6004055738449097
			],
			"type":"VEC3"
		},
		{
			"bufferView":6,
			"componentType":5126,
			"count":1512,
			"type":"VEC3"
		},
		{
			"bufferView":7,
			"componentType":5126,
			"count":1512,
			"type":"VEC2"
		},
		{
			"bufferView":8,
			"componentType":5126,
			"count":1512,
			"type":"VEC4"
		},
		{
			"bufferView":9,
			"componentType":5123,
			"count":7497,
			"type":"SCALAR"
		},
		{
			"bufferView":10,
			"componentType":5126,
			"count":825,
			"max":[
				0.9133687615394592,
				0.5363366007804871,
				0.02238018438220024
			],
			"min":[
				-0.73511803150177,
				-0.7349091172218323,
				-1.6037495136260986
			],
			"type":"VEC3"
		},
		{
			"bufferView":11,
			"componentType":5126,
			"count":825,
			"type":"VEC3"
		},
		{
			"bufferView":12,
			"componentType":5126,
			"count":825,
			"type":"VEC2"
		},
		{
			"bufferView":13,
			"componentType":5126,
			"count":825,
			"type":"VEC4"
		},
		{
			"bufferView":14,
			"componentType":5123,
			"count":3747,
			"type":"SCALAR"
		},
		{
			"bufferView":15,
			"componentType":5126,
			"count":460,
			"max":[
				0.9128473997116089,
				0.5327944755554199,
				0.022226914763450623
			],
			"min":[
				-0.73511803150177,
				-0.7429264187812805,
				-1.6031098365783691
			],
			"type":"VEC3"
		},
		{
			"bufferView":16,
			"componentType":5126,
			"count":460,
			"type":"VEC3"
		},
		{
			"bufferView":17,
			"componentType":5126,
			"count":460,
			"type":"VEC2"
		},
		{
			"bufferView":18,
			"componentType":5126,
			"count":460,
			"type":"VEC4"
		},
		{
			"bufferView":19,
			"componentType":5123,
			"count":1869,
			"type":"SCALAR"
		},
		{
			"bufferView":20,
			"componentType":5126,
			"count":271,
			"max":[
				0.9157981872558594,
				0.5292262434959412,
				0.019852524623274803
			],
			"min":[
				-0.7371782660484314,
				-0.7359467148780823,
				-1.6087838411331177
			],
			"type":"VEC3"
		},
		{
			"bufferView":21,
			"componentType":5126,
			"count":271,
			"type":"VEC3"
		},
		{
			"bufferView":22,
			"componentType":5126,
			"count":271,
			"type":"VEC2"
		},
		{
			"bufferView":23,
			"componentType":5126,
			"count":271,
			"type":"VEC4"
		},
		{
			"bufferView":24,
			"componentType":5123,
			"count":933,
			"type":"SCALAR"
		},
		{
			"bufferView":25,
			"componentType":5126,
			"count":168,
			"max":[
				0.922943651676178,
				0.5236351490020752,
				0.01825648359954357
			],
			"min":[
				-0.7041658163070679,
				-0.7359467148780823,
				-1.6078040599822998
			],
			"type":"VEC3"
		},
		{
			"bufferView":26,
			"componentType":5126,
			"count":168,
			"type":"VEC3"
		},
		{
			"bufferView":27,
			"componentType":5126,
			"count":168,
			"type":"VEC2"
		},
		{
			"bufferView":28,
			"componentType":5126,
			"count":168,
			"type":"VEC4"
		},
		{
			"bufferView":29,
			"componentType":5123,
			"count":465,
			"type":"SCALAR"
		},
		{
			"bufferView":30,
			"componentType":5126,
			"count":103,
			"max":[
				0.8697775602340698,
				0.5312986373901367,
				0.01271876972168684
			],
			"min":[
				-0.7192224264144897,
				-0.7049865126609802,
				-1.6186381578445435
			],
			"type":"VEC3"
		},
		{
			"bufferView":31,
			"componentType":5126,
			"count":103,
			"type":"VEC3"
		},
		{
			"bufferView":32,
			"componentType":5126,
			"count":103,
			"type":"VEC2"
		},
		{
			"bufferView":33,
			"componentType":5126,
			"count":103,
			"type":"VEC4"
		},
		{
			"bufferView":34,
			"componentType":5123,
			"count":231,
			"type":"SCALAR"
		}
	],
	"bufferViews":[
		{
			"buffer":0,
			"byteLength":33768,
			"byteOffset":0,
			"target":34962
		},
		{
			"buffer":0,
			"byteLength":33768,
			"byteOffset":33768,
			"target":34962
		},
		{
			"buffer":0,
			"byteLength":22512,
			"byteOffset":67536,
			"target":34962
		},
		{
			"buffer":0,
			"byteLength":45024,
			"byteOffset":90048,
			"target":34962
		},
		{
			"buffer":0,
			"byteLength":29994,
			"byteOffset":135072,
			"target":34963
		},
		{
			"buffer":0,
			"byteLength":18144,
			"byteOffset":165068,
			"target":34962
		},
		{
			"buffer":0,
			"byteLength":18144,
			"byteOffset":183212,
			"target":34962
		},
		{
			"buffer":0,
			"byteLength":12096,
			"byteOffset":201356,
			"target":34962
		},
		{
			"buffer":0,
			"byteLength":24192,
			"byteOffset":213452,
			"target":34962
		},
		{
			"buffer":0,
			"byteLength":14994,
			"byteOffset":237644,
			"target":34963
		},
		{
			"buffer":0,
			"byteLength":9900,
			"byteOffset":252640,
			"target":34962
		},
		{
			"buffer":0,
			"byteLength":9900,
			"byteOffset":262540,
			"target":34962
		},
		{
			"buffer":0,
			"byteLength":6600,
			"byteOffset":272440,
			"target":34962
		},
		{
			"buffer":0,
			"byteLength":13200,
			"byteOffset":279040,
			"target":34962
		},
		{
			"buffer":0,
			"byteLength":7494,
			"byteOffset":292240,
			"target":34963
		},
		{
			"buffer":0,
			"byteLength":5520,
			"byteOffset":299736,
			"target":34962
		},
		{
			"buffer":0,
			"byteLength":5520,
			"byteOffset":305256,
			"target":34962
		},
		{
			"buffer":0,
			"byteLength":3680,
			"byteOffset":310776,
			"target":34962
		},
		{
			"buffer":0,
			"byteLength":7360,
			"byteOffset":314456,
			"target":34962
		},
		{
			"buffer":0,
			"byteLength":3738,
			"byteOffset":321816,
			"target":34963
		},
		{
			"buffer":0,
			"byteLength":3252,
			"byteOffset":325556,
			"target":34962
		},
		{
			"buffer":0,
			"byteLength":3252,
			"byteOffset":328808,
			"target":34962
		},
		{
			"buffer":0,
			"byteLength":2168,
			"byteOffset":332060,
			"target":34962
		},
		{
			"buffer":0,
			"byteLength":4336,
			"byteOffset":334228,
			"target":34962
		},
		{
			"buffer":0,
			"byteLength":1866,
			"byteOffset":338564,
			"target":34963
		},
		{
			"buffer":0,
			"byteLength":2016,
			"byteOffset":340432,
			"target":34962
		},
		{
			"buffer":0,
			"byteLength":2016,
			"byteOffset":342448,
			"target":34962
		},
		{
			"buffer":0,
			"byteLength":1344,
			"byteOffset":344464,
			"target":34962
		},
		{
			"buffer":0,
			"byteLength":2688,
			"byteOffset":345808,
			"target":34962
		},
		{
			"buffer":0,
			"byteLength":930,
			"byteOffset":348496,
			"target":34963
		},
		{
			"buffer":0,
			"byteLength":1236,
			"byteOffset":349428,
			"target":34962
		},
		{
			"buffer":0,
			"byteLength":1236,
			"byteOffset":350664,
			"target":34962
		},
		{
			"buffer":0,
			"byteLength":824,
			"byteOffset":351900,
			"target":34962
		},
		{
			"buffer":0,
			"byteLength":1648,
			"byteOffset":352724,
			"target":34962
		},
		{
			"buffer":0,
			"byteLength":462,
			"byteOffset":354372,
			"target":34963
		}
	],
	"buffers":[
		{
			"byteLength":354836,
			"uri":"bunny.bin"
		}
	]
}
