{
    "asset" : {
        "generator" : "Khronos glTF Blender I/O v3.4.50",
        "version" : "2.0"
    },
    "scene" : 0,
    "scenes" : [
        {
            "name" : "Scene",
            "nodes" : [
                0
            ]
        }
    ],
    "nodes" : [
        {
            "mesh" : 0,
            "name" : "LOD3spShape",
            "translation" : [
              0, 18, 0
            ],
            "scale" : [
              0.5, 0.5, 0.5
            ]
        }
    ],
    "materials" : [
        {
            "name" : "blinn3-fx",
            "pbrMetallicRoughness" : {
                "baseColorTexture" : {
                    "index" : 0
                },
                "metallicFactor" : 0
            }
        }
    ],
    "meshes" : [
        {
            "name" : "LOD3spShape",
            "primitives" : [
                {
                    "attributes" : {
                        "POSITION" : 0,
                        "TEXCOORD_0" : 1,
                        "NORMAL" : 2,
                        "TANGENT" : 3
                    },
                    "indices" : 4,
                    "material" : 0,
          "extensions": {
            "GCT_rigid": {
              "local_center_of_mass": [ 0.07114732,  0.6483297 , -0.01280831 ],
              "momentum_inertia_tensor": [
 0.40236756, -0.06700588,  0.00203378,
-0.06700588,  0.3564514 ,  0.00215944,
 0.00203378,  0.00215944,  0.53287432
              ],
              "mass" : 2.0
            }
          }
                }
            ]
        }
    ],
    "textures" : [
        {
            "sampler" : 0,
            "source" : 0
        }
    ],
    "images" : [
        {
            "mimeType" : "image/png",
            "name" : "DuckCM",
            "uri" : "DuckCM.png"
        }
    ],
    "accessors" : [
        {
            "bufferView" : 0,
            "componentType" : 5126,
            "count" : 2662,
            "max" : [
                0.9586211442947388,
                1.703562617301941,
                0.6207724213600159
            ],
            "min" : [
                -0.8560551404953003,
                0.014315664768218994,
                -0.6431236267089844
            ],
            "type" : "VEC3"
        },
        {
            "bufferView" : 1,
            "componentType" : 5126,
            "count" : 2662,
            "type" : "VEC2"
        },
        {
            "bufferView" : 2,
            "componentType" : 5126,
            "count" : 2662,
            "type" : "VEC3"
        },
        {
            "bufferView" : 3,
            "componentType" : 5126,
            "count" : 2662,
            "type" : "VEC4"
        },
        {
            "bufferView" : 4,
            "componentType" : 5123,
            "count" : 12636,
            "type" : "SCALAR"
        }
    ],
    "bufferViews" : [
        {
            "buffer" : 0,
            "byteLength" : 31944,
            "byteOffset" : 0,
            "target" : 34962
        },
        {
            "buffer" : 0,
            "byteLength" : 21296,
            "byteOffset" : 31944,
            "target" : 34962
        },
        {
            "buffer" : 0,
            "byteLength" : 31944,
            "byteOffset" : 53240,
            "target" : 34962
        },
        {
            "buffer" : 0,
            "byteLength" : 42592,
            "byteOffset" : 85184,
            "target" : 34962
        },
        {
            "buffer" : 0,
            "byteLength" : 25272,
            "byteOffset" : 127776,
            "target" : 34963
        }
    ],
    "samplers" : [
        {
            "magFilter" : 9729,
            "minFilter" : 9987
        }
    ],
    "buffers" : [
        {
            "byteLength" : 153048,
            "uri" : "duck.bin"
        }
    ]
}
