{
    "asset" : {
        "generator" : "Khronos glTF Blender I/O v3.4.50",
        "version" : "2.0"
    },
    "scene" : 0,
    "scenes" : [
        {
            "name" : "Scene",
            "nodes" : [
                0
            ]
        }
    ],
    "nodes" : [
        {
            "mesh" : 0,
            "name" : "\u5e73\u9762.002",
            "scale" : [
                0.5202128291130066,
                0.5202128291130066,
                0.5202128291130066
            ],
            "translation" : [
                -0.3832970857620239,
                1.681077766418457,
                0.07635420560836792
            ]
        }
    ],
    "materials" : [
        {
            "doubleSided" : true,
            "name" : "\u30de\u30c6\u30ea\u30a2\u30eb.002",
            "pbrMetallicRoughness" : {
                "baseColorFactor" : [
                    0.800000011920929,
                    0.400000011920929,
                    0.300000011920929,
                    1
                ],
                "metallicFactor" : 0,
                "roughnessFactor" : 0.2
            }
        }
    ],
    "meshes" : [
        {
            "name" : "\u5e73\u9762.002",
            "primitives" : [
                {
                    "attributes" : {
                        "POSITION" : 0,
                        "TEXCOORD_0" : 1,
                        "NORMAL" : 2,
                        "TANGENT" : 3
                    },
                    "indices" : 4,
                    "material" : 0
                }
            ]
        }
    ],
    "accessors" : [
        {
            "bufferView" : 0,
            "componentType" : 5126,
            "count" : 4535,
            "max" : [
                2.7810354232788086,
                0.5665490627288818,
                2.429460287094116
            ],
            "min" : [
                -1.483620285987854,
                -1.1350752115249634,
                -2.4159128665924072
            ],
            "type" : "VEC3"
        },
        {
            "bufferView" : 1,
            "componentType" : 5126,
            "count" : 4535,
            "type" : "VEC2"
        },
        {
            "bufferView" : 2,
            "componentType" : 5126,
            "count" : 4535,
            "type" : "VEC3"
        },
        {
            "bufferView" : 3,
            "componentType" : 5126,
            "count" : 4535,
            "type" : "VEC4"
        },
        {
            "bufferView" : 4,
            "componentType" : 5123,
            "count" : 17376,
            "type" : "SCALAR"
        }
    ],
    "bufferViews" : [
        {
            "buffer" : 0,
            "byteLength" : 54420,
            "byteOffset" : 0,
            "target" : 34962
        },
        {
            "buffer" : 0,
            "byteLength" : 36280,
            "byteOffset" : 54420,
            "target" : 34962
        },
        {
            "buffer" : 0,
            "byteLength" : 54420,
            "byteOffset" : 90700,
            "target" : 34962
        },
        {
            "buffer" : 0,
            "byteLength" : 72560,
            "byteOffset" : 145120,
            "target" : 34962
        },
        {
            "buffer" : 0,
            "byteLength" : 34752,
            "byteOffset" : 217680,
            "target" : 34963
        }
    ],
    "buffers" : [
        {
            "byteLength" : 252432,
            "uri" : "haired_teapot.bin"
        }
    ]
}
