{
    "asset" : {
        "generator" : "Khronos glTF Blender I/O v3.4.50",
        "version" : "2.0"
    },
    "scene" : 0,
    "scenes" : [
        {
            "name" : "Scene",
            "nodes" : [
                0
            ]
        }
    ],
    "nodes" : [
        {
            "mesh" : 0,
            "name" : "teapot",
            "rotation" : [
                0.70710688829422,
                0,
                0,
                0.7071066498756409
            ],
            "scale" : [
                0.5202128291130066,
                0.5202128291130066,
                0.5202128291130066
            ],
            "translation" : [
                3.1501054763793945e-05,
                0.18501856923103333,
                -0.005828380584716797
            ]
        }
    ],
    "materials" : [
        {
            "doubleSided" : true,
            "name" : "\u30de\u30c6\u30ea\u30a2\u30eb",
            "pbrMetallicRoughness" : {
                "baseColorFactor" : [
                    0,
                    1,
                    0.016652684658765793,
                    1
                ],
                "metallicFactor" : 0,
                "roughnessFactor" : 0.1
            }
        }
    ],
    "meshes" : [
        {
            "name" : "teapot",
            "primitives" : [
                {
                    "attributes" : {
                        "POSITION" : 0,
                        "TEXCOORD_0" : 1,
                        "NORMAL" : 2,
                        "TANGENT" : 3
                    },
                    "indices" : 4,
                    "material" : 0
                }
            ]
        }
    ],
    "accessors" : [
        {
            "bufferView" : 0,
            "componentType" : 5126,
            "count" : 3454,
            "max" : [
                3.4281249046325684,
                2,
                0
            ],
            "min" : [
                -3,
                -2,
                -3.1500000953674316
            ],
            "type" : "VEC3"
        },
        {
            "bufferView" : 1,
            "componentType" : 5126,
            "count" : 3454,
            "type" : "VEC2"
        },
        {
            "bufferView" : 2,
            "componentType" : 5126,
            "count" : 3454,
            "type" : "VEC3"
        },
        {
            "bufferView" : 3,
            "componentType" : 5126,
            "count" : 3454,
            "type" : "VEC4"
        },
        {
            "bufferView" : 4,
            "componentType" : 5123,
            "count" : 18900,
            "type" : "SCALAR"
        }
    ],
    "bufferViews" : [
        {
            "buffer" : 0,
            "byteLength" : 41448,
            "byteOffset" : 0,
            "target" : 34962
        },
        {
            "buffer" : 0,
            "byteLength" : 27632,
            "byteOffset" : 41448,
            "target" : 34962
        },
        {
            "buffer" : 0,
            "byteLength" : 41448,
            "byteOffset" : 69080,
            "target" : 34962
        },
        {
            "buffer" : 0,
            "byteLength" : 55264,
            "byteOffset" : 110528,
            "target" : 34962
        },
        {
            "buffer" : 0,
            "byteLength" : 37800,
            "byteOffset" : 165792,
            "target" : 34963
        }
    ],
    "buffers" : [
        {
            "byteLength" : 203592,
            "uri" : "teapot.bin"
        }
    ]
}
